<svg version="1.1" id="Layer_1" xmlns="http://www.w3.org/2000/svg" xmlns:xlink="http://www.w3.org/1999/xlink" x="0px" y="0px"
	 width="100%" viewBox="0 0 1024 1024" enable-background="new 0 0 1024 1024" xml:space="preserve">
<path fill="#000000" opacity="1.000000" stroke="none" 
	d="
M363.186218,511.376465 
	C347.489990,514.050720 332.920898,509.319031 318.070374,507.505066 
	C309.834778,506.499146 301.470398,506.451447 293.157135,506.200745 
	C281.013580,505.834442 268.847595,506.607086 256.721497,505.137604 
	C247.508728,504.021210 239.187683,508.483185 230.355789,509.905182 
	C216.724319,512.099915 203.212387,515.039185 189.654922,517.689087 
	C187.494339,518.111389 185.620728,518.177979 185.055359,515.419373 
	C184.325760,511.859283 181.359482,510.864655 178.602951,511.254883 
	C174.906693,511.778076 171.253830,510.880676 167.717804,511.382080 
	C159.131348,512.599670 152.697571,509.699463 147.364471,502.991333 
	C144.274368,499.104584 140.417984,495.813629 136.805756,492.359863 
	C134.108017,489.780487 131.573273,489.457214 128.731064,492.626617 
	C124.852997,496.951141 119.678551,497.094757 115.955170,493.463745 
	C112.433968,490.029846 112.228203,484.314545 115.500946,480.845917 
	C119.098724,477.032745 124.696724,477.131653 128.819534,481.221832 
	C130.016968,482.409760 130.973145,483.921295 132.886887,483.670990 
	C137.668076,483.045715 140.647781,485.847839 143.546921,488.979004 
	C147.395218,493.135284 151.404892,497.144745 155.180771,501.364471 
	C157.211014,503.633362 159.399902,504.769928 162.546661,504.689545 
	C170.206772,504.493835 177.875916,504.528931 185.539276,504.631134 
	C189.681076,504.686371 190.949783,502.778839 190.963516,498.797333 
	C190.977829,494.647247 188.809372,494.268402 185.573074,494.341705 
	C179.744034,494.473785 173.904404,494.223297 168.079697,494.429474 
	C164.797668,494.545624 162.317078,493.542206 160.185745,491.088837 
	C158.331909,488.954865 156.146759,487.111053 154.258392,485.004242 
	C151.119965,481.502747 148.361237,478.325745 142.534424,479.851593 
	C138.581558,480.886658 134.676651,476.056030 134.453293,471.437714 
	C134.216293,466.537170 137.464600,462.440826 142.062912,461.841461 
	C146.303391,461.288727 151.320953,464.635620 152.035492,469.191254 
	C153.403778,477.915100 161.272842,481.267883 166.231049,486.999756 
	C166.875839,487.745117 168.752182,487.596405 170.052872,487.572937 
	C175.213242,487.479828 180.376297,487.058472 185.529129,487.173218 
	C189.763702,487.267517 190.895935,485.437347 190.859848,481.462158 
	C190.819138,476.977997 188.039185,477.379791 185.142334,477.395447 
	C180.476898,477.420624 175.811157,477.387115 171.145538,477.378601 
	C168.756470,477.374237 166.719696,476.855988 166.769394,473.881592 
	C166.814911,471.157532 168.593155,470.036804 171.024231,469.983124 
	C176.187378,469.869110 181.358383,469.770447 186.517654,469.933960 
	C190.334976,470.054901 190.782883,467.927063 190.838776,464.870605 
	C190.895081,461.790344 190.032745,460.234070 186.629837,460.297485 
	C179.300949,460.434082 171.959564,460.106079 164.638580,460.378357 
	C160.771942,460.522186 157.990372,459.276398 155.468842,456.464813 
	C152.246017,452.871307 148.593658,449.662079 145.385208,446.056976 
	C142.666901,443.002563 140.453247,442.446259 137.029129,445.371094 
	C132.944229,448.860352 127.588631,447.996918 124.614662,444.125092 
	C121.540565,440.122925 122.062241,434.471771 125.774612,431.559357 
	C129.720596,428.463715 135.131439,429.147339 138.665482,433.201813 
	C139.208527,433.824799 139.611588,434.966339 140.221115,435.075317 
	C148.994751,436.643738 152.616806,444.609192 158.435913,449.782745 
	C160.854462,451.933014 163.108063,453.150024 166.362579,453.059814 
	C173.022949,452.875214 179.692825,452.900330 186.355896,453.011902 
	C189.136475,453.058441 190.630356,452.030609 191.322739,449.295044 
	C192.904907,443.043671 196.238968,437.986816 202.203857,435.110077 
	C204.432999,434.035034 204.785522,432.321014 204.779465,430.212097 
	C204.764618,425.046722 204.760681,419.880829 204.817490,414.715881 
	C204.846375,412.088776 205.238495,409.269257 208.610794,409.386963 
	C211.871735,409.500793 212.251846,412.275360 212.261032,414.925598 
	C212.277222,419.591217 212.376785,424.259735 212.246002,428.921570 
	C212.157074,432.091797 213.743393,432.963989 216.564590,432.864655 
	C219.218338,432.771240 221.687653,432.722290 221.649200,429.041931 
	C221.596985,424.043732 221.667892,419.044342 221.658524,414.045532 
	C221.654068,411.671997 222.105743,409.565033 225.010040,409.471161 
	C227.810211,409.380676 228.829422,411.466705 228.938614,413.733765 
	C229.178848,418.721375 229.191956,423.725037 229.131989,428.720154 
	C229.096100,431.708221 230.359314,432.883728 233.325104,432.867859 
	C236.160721,432.852692 238.405716,432.333344 238.471695,428.969147 
	C238.543457,425.308380 238.440002,421.643951 238.398972,417.981262 
	C238.384079,416.652740 238.195557,415.311920 238.321030,413.999146 
	C238.549484,411.608948 238.936890,409.038910 242.181778,409.272736 
	C245.014908,409.476929 245.367233,411.743530 245.391129,414.056305 
	C245.437592,418.554077 245.604416,423.053680 245.521225,427.548798 
	C245.453232,431.221558 246.631882,433.006317 250.721832,432.920807 
	C255.132889,432.828583 254.504623,430.036224 254.923004,427.188263 
	C256.760925,414.677032 253.330414,404.664459 242.682877,397.038208 
	C237.418091,393.267365 234.011337,387.275085 226.716492,385.881989 
	C222.257141,385.030426 220.479416,379.304077 222.034851,374.680359 
	C223.334183,370.817993 227.575089,368.242371 231.487808,368.939270 
	C236.023438,369.747192 240.152313,374.283203 238.986450,378.582733 
	C237.794052,382.980194 240.003281,385.048950 242.551331,387.505157 
	C248.066772,392.821777 253.462097,398.263916 259.019287,403.535858 
	C261.356323,405.752899 262.472412,408.186798 262.359192,411.469391 
	C262.164062,417.127930 262.426331,422.801392 262.275574,428.462708 
	C262.189117,431.708862 263.482544,432.936737 266.689728,432.877808 
	C269.709259,432.822296 271.845917,432.477386 271.743561,428.590912 
	C271.568237,421.931610 271.763641,415.262634 271.789520,408.597656 
	C271.792114,407.933502 271.927277,407.128448 271.617126,406.625366 
	C265.439606,396.605408 268.875580,385.489410 268.001343,374.877441 
	C267.789978,372.312439 267.412872,370.211670 265.469025,368.174225 
	C261.532928,364.048737 261.735352,358.211548 265.455750,354.782532 
	C268.934204,351.576508 274.862396,351.891724 278.076416,355.453613 
	C281.484894,359.230988 281.086121,364.965881 277.098022,368.804199 
	C276.261871,369.608887 274.931305,370.228271 274.972534,371.445953 
	C275.278931,380.499756 273.686920,389.619568 275.395172,398.628082 
	C280.100128,394.266724 284.625244,390.200775 288.977722,385.957672 
	C290.254303,384.713196 289.551605,382.765869 289.663696,381.130768 
	C290.019348,375.942657 293.799164,372.514496 298.913574,372.761261 
	C303.842285,372.999054 307.411774,376.941437 307.353455,382.082794 
	C307.298004,386.970978 303.817047,390.802460 298.795105,390.438324 
	C295.131226,390.172699 293.192169,391.974976 290.595459,393.940887 
	C280.867706,401.305603 276.303284,410.428864 279.007050,422.706268 
	C279.392517,424.456543 279.175995,426.366211 279.069550,428.192261 
	C278.871246,431.594208 280.310150,432.955658 283.777740,432.906769 
	C287.131409,432.859497 288.134186,431.286560 288.076721,428.263153 
	C287.988098,423.599579 287.963562,418.931396 288.071991,414.268860 
	C288.127960,411.862335 288.569031,409.330872 291.763153,409.350677 
	C294.908844,409.370178 295.372162,411.676666 295.362091,414.242371 
	C295.343781,418.907776 295.451935,423.574219 295.388397,428.238617 
	C295.341827,431.656982 296.958618,432.882629 300.288727,432.968292 
	C303.894196,433.061096 304.941010,431.438965 304.835083,428.139038 
	C304.685455,423.478302 304.755341,418.808716 304.811981,414.143890 
	C304.840179,411.819946 305.438965,409.662750 308.286499,409.565155 
	C311.315155,409.461365 312.278168,411.453949 312.287170,414.137207 
	C312.303345,418.969452 312.445496,423.806091 312.282715,428.632385 
	C312.169891,431.976807 313.682526,432.977539 316.786285,432.963806 
	C319.915894,432.949982 321.895721,432.321442 321.736938,428.549744 
	C321.533844,423.726624 321.689087,418.887360 321.732971,414.055420 
	C321.754242,411.713287 322.367706,409.513733 325.131653,409.373688 
	C328.173157,409.219513 329.090302,411.514008 329.153748,414.029449 
	C329.288208,419.358582 329.313416,424.693848 329.220093,430.023773 
	C329.175598,432.565704 329.697205,434.353027 332.251221,435.647095 
	C337.594940,438.354706 340.924866,442.947754 342.243958,448.716461 
	C342.996582,452.008026 344.678131,453.054962 347.822479,452.968292 
	C352.650757,452.835175 357.486359,452.911316 362.317841,452.975128 
	C365.015747,453.010773 367.498505,453.620972 367.401672,457.044159 
	C367.307495,460.372498 364.752045,460.366211 362.339966,460.376282 
	C357.341248,460.397125 352.340027,460.509491 347.344543,460.389160 
	C343.747070,460.302490 342.842224,462.079315 342.908661,465.339264 
	C342.971649,468.429504 343.988922,469.995453 347.267395,469.937531 
	C352.097473,469.852173 356.933929,469.869385 361.761871,470.024323 
	C364.463440,470.111084 367.490265,470.357910 367.320831,474.169830 
	C367.155121,477.898682 364.100220,477.327698 361.684509,477.371857 
	C357.020172,477.457062 352.352509,477.495148 347.688477,477.417847 
	C344.263000,477.361115 342.996918,479.014679 342.899078,482.302490 
	C342.795410,485.786957 344.320343,487.054016 347.669525,487.031403 
	C353.998566,486.988708 360.330414,487.099152 366.658203,487.259766 
	C369.155853,487.323120 370.546021,485.715027 372.153229,484.261475 
	C378.303558,478.699005 383.264221,471.859344 390.336761,467.292358 
	C391.688446,466.419495 391.467163,465.025543 391.758484,463.753937 
	C392.978912,458.426788 397.042450,455.728271 402.056610,456.834961 
	C406.447449,457.804047 409.797485,462.779175 408.936340,467.052063 
	C407.974426,471.824951 403.202148,475.636536 398.583130,474.029266 
	C393.765045,472.352692 391.288330,474.296265 388.409637,477.421509 
	C383.899780,482.317749 379.013123,486.864746 374.394318,491.663879 
	C372.377594,493.759308 370.083008,494.475128 367.236481,494.398071 
	C361.908173,494.253815 356.573181,494.349670 351.240967,494.355713 
	C342.507721,494.365601 342.027557,494.947632 343.458740,504.617157 
	C351.120178,504.617157 358.957794,505.179413 366.675018,504.456512 
	C374.157623,503.755615 379.546265,506.277466 383.795410,512.073181 
	C386.480560,515.735718 389.927856,517.325928 394.561829,516.853149 
	C397.020630,516.602295 398.829773,515.926331 400.683289,514.187866 
	C404.572113,510.540466 410.028809,511.032593 413.624084,514.925903 
	C416.876068,518.447388 416.785828,523.859619 413.421173,527.101135 
	C410.069855,530.329773 403.732819,530.298218 400.377350,526.573853 
	C398.452179,524.437012 396.375763,523.576172 393.797028,523.977173 
	C388.109589,524.861511 383.646881,523.020447 380.416809,518.324463 
	C376.307434,512.350098 370.730347,510.083618 363.186218,511.376465 
M206.723923,503.467010 
	C210.516800,504.040863 210.711731,501.570465 210.709579,498.834534 
	C210.700790,487.674866 210.727753,476.515198 210.738831,465.355530 
	C210.750076,454.033508 211.897903,452.912262 223.432816,452.925812 
	C243.753922,452.949707 264.075043,452.970367 284.396149,452.988251 
	C300.641541,453.002533 297.903290,451.259369 298.290771,466.649139 
	C298.413208,471.513733 297.112457,475.156799 293.432495,478.513947 
	C287.041962,484.343872 281.095734,490.662445 275.007263,496.819733 
	C274.324524,497.510132 272.857300,497.959015 273.621674,499.638092 
	C275.534515,499.302094 276.454407,497.793396 277.599548,496.669067 
	C283.066620,491.301514 288.317352,485.699585 293.982086,480.551971 
	C298.220123,476.700867 300.060242,472.522034 299.922028,466.617676 
	C299.571625,451.646179 300.393463,451.177795 315.481354,453.082092 
	C316.623901,453.226288 317.784332,453.514130 318.845032,453.955048 
	C320.445801,454.620483 322.155823,455.911041 322.012543,457.519775 
	C321.185822,466.801453 327.097137,477.598022 316.153503,484.715088 
	C315.567596,485.096130 314.832581,485.711304 315.146240,486.752686 
	C317.611389,486.194397 319.332916,483.262421 323.029785,484.713348 
	C323.029785,489.791931 323.061737,495.069397 323.018616,500.346252 
	C322.989594,503.894379 324.277985,505.691925 327.941986,504.702759 
	C328.930939,503.265930 328.639465,501.891235 328.642090,500.590546 
	C328.668488,487.431763 328.714996,474.272644 328.644836,461.114166 
	C328.595764,451.914948 323.998077,447.352966 314.735413,447.344086 
	C282.587952,447.313293 250.440384,447.328125 218.292938,447.373291 
	C209.826218,447.385193 205.350143,451.844727 205.294571,460.306091 
	C205.210358,473.131317 205.227936,485.957275 205.231644,498.782928 
	C205.232071,500.249481 204.939835,501.809418 206.723923,503.467010 
M306.363068,468.118774 
	C306.715332,468.856598 306.875244,469.837341 307.450806,470.293243 
	C311.473022,473.478638 309.849518,476.216461 306.910736,478.910400 
	C306.051880,479.697693 305.181549,480.472443 304.325317,481.262482 
	C297.912109,487.179504 292.412079,493.986603 284.636078,500.190460 
	C287.964142,500.385590 289.058197,499.078278 290.186920,497.990540 
	C293.063751,495.218109 295.980408,492.475647 298.694366,489.548004 
	C303.965057,483.862549 310.348633,479.231903 313.344360,471.429626 
	C314.248199,469.075623 316.444153,467.251953 315.115021,464.518402 
	C314.207550,462.652100 312.434937,461.307556 310.227509,461.809814 
	C307.429657,462.446503 306.172607,464.511597 306.363068,468.118774 
M279.926300,479.408936 
	C284.470398,476.992096 284.772766,471.315186 288.403778,468.287140 
	C291.077240,466.057617 291.677765,463.717529 289.711945,460.981415 
	C288.258911,458.959106 286.029114,458.609772 283.954956,459.955536 
	C281.138367,461.782990 280.355377,464.343658 282.570557,467.147339 
	C284.820679,469.995239 284.028778,472.310242 281.777344,474.597992 
	C275.020355,481.464111 268.261353,488.328491 261.549896,495.238922 
	C260.491852,496.328369 258.648590,496.964508 259.004181,499.991913 
	C266.112335,492.989685 272.759521,486.441528 279.926300,479.408936 
M250.523346,489.361816 
	C254.679047,484.890228 257.654572,478.973297 264.963287,478.528564 
	C267.989685,478.344421 269.005127,476.021179 268.742889,473.130768 
	C268.489197,470.334290 266.733337,468.789764 264.191864,468.772919 
	C261.436798,468.754608 259.117096,470.406067 259.343933,473.332672 
	C259.664429,477.468079 257.230865,479.690308 254.658508,482.079468 
	C253.081543,483.544128 251.491806,485.042603 250.182053,486.737793 
	C247.209610,490.584991 248.466675,494.700562 249.191193,498.749573 
	C251.555481,495.993958 249.619492,492.960388 250.523346,489.361816 
M253.362595,457.043549 
	C251.955307,457.841766 250.773163,459.218475 251.052567,460.633942 
	C252.283875,466.871704 247.943329,469.983795 244.146515,473.275146 
	C240.349762,476.566437 237.419739,479.939697 238.208038,485.507843 
	C238.853821,490.069244 237.554382,494.823151 239.312286,499.340759 
	C239.793396,497.886963 240.144257,496.397522 239.927414,494.995941 
	C238.341019,484.742462 240.796341,476.159149 249.570236,469.828552 
	C251.303650,468.577820 252.575775,466.847382 254.980087,466.680786 
	C258.172150,466.459564 260.728546,464.793701 260.376495,461.454102 
	C260.028839,458.156067 257.570923,456.347565 253.362595,457.043549 
M228.611755,499.437073 
	C230.849243,498.530365 229.636337,496.611298 229.663589,495.229156 
	C229.797638,488.432190 229.755402,481.630249 229.673645,474.831268 
	C229.640854,472.103455 229.889557,469.735107 232.166550,467.675842 
	C234.402512,465.653717 234.622635,462.875000 232.397583,460.614349 
	C230.324463,458.507996 227.696869,458.775787 225.709641,460.691071 
	C223.479172,462.840668 223.517715,465.698212 225.661636,467.803284 
	C227.973831,470.073608 228.150818,472.650391 228.148056,475.524200 
	C228.140549,483.314362 228.233292,491.104584 228.611755,499.437073 
M220.993683,479.428223 
	C218.450531,477.732239 216.021332,477.578613 213.931198,480.118652 
	C212.362503,482.025055 211.936218,484.413300 214.011276,485.868591 
	C217.521698,488.330566 217.227097,491.709076 217.300262,495.203156 
	C217.336609,496.938263 216.756897,498.877228 218.578552,501.513702 
	C219.016098,494.920715 217.441498,489.039795 222.235062,484.516235 
	C223.443634,483.375763 222.633820,481.350403 220.993683,479.428223 
M314.452606,492.617920 
	C313.941559,489.363281 311.682068,488.663544 308.975647,489.246124 
	C306.010620,489.884338 304.592316,492.185974 304.528717,495.043518 
	C304.477783,497.333466 306.057861,498.572327 308.303986,498.872253 
	C311.482300,499.296600 313.313507,497.789429 314.093414,494.798279 
	C314.218170,494.319702 314.334106,493.838806 314.452606,492.617920 
M271.485046,358.520386 
	C269.030609,359.264069 267.528961,360.648163 269.136810,363.231201 
	C270.168152,364.888031 271.966400,365.176575 273.407593,363.725189 
	C275.620331,361.496765 274.353058,359.890900 271.485046,358.520386 
M295.695038,380.806641 
	C295.425873,383.618469 296.743286,384.919403 299.456909,384.272949 
	C300.771118,383.959839 301.830261,382.695709 301.166779,381.229126 
	C300.023315,378.701447 298.174438,378.440887 295.695038,380.806641 
M119.436699,486.699493 
	C119.600754,489.343567 121.033722,490.250916 123.384819,489.228363 
	C124.794968,488.615051 125.109138,487.068329 124.280708,485.877533 
	C122.793236,483.739471 121.094765,483.887512 119.436699,486.699493 
M230.390259,380.583588 
	C232.838959,379.806915 233.475082,378.178406 232.002075,376.168915 
	C230.997940,374.799072 229.297623,374.797455 228.231033,376.160889 
	C226.659805,378.169434 227.274872,379.756531 230.390259,380.583588 
M398.651642,467.694702 
	C400.197021,468.815063 401.551605,468.495300 402.384888,466.888702 
	C403.030914,465.643005 402.929993,464.268219 401.694855,463.285767 
	C400.859039,462.620941 399.887177,462.365021 398.931061,463.018494 
	C397.273712,464.151337 396.899872,465.565033 398.651642,467.694702 
M143.437805,473.618561 
	C146.055420,472.808289 146.468704,471.102722 144.929199,469.094025 
	C143.991501,467.870605 142.392349,467.979980 141.429001,469.140594 
	C139.793640,471.110931 140.028625,472.800842 143.437805,473.618561 
M406.519867,523.515503 
	C408.943359,523.135925 410.215668,521.856262 409.129425,519.421448 
	C408.506256,518.024658 406.920105,517.725708 405.724365,518.589783 
	C403.634796,520.099731 403.744507,521.832092 406.519867,523.515503 
M129.399582,436.898987 
	C127.988945,439.225159 128.814026,440.800232 131.270950,441.240417 
	C132.737396,441.503143 133.766006,440.275116 133.725601,438.767517 
	C133.654526,436.116272 132.358612,435.168488 129.399582,436.898987 
z"/>
<path fill="#000000" opacity="1.000000" stroke="none" 
	d="
M367.999512,557.708008 
	C382.062561,555.359070 392.774323,559.778320 400.842041,570.988220 
	C402.665863,573.522339 405.791107,575.165283 407.437805,577.773621 
	C414.805634,589.444153 426.176941,588.434570 437.533630,587.840393 
	C439.626678,587.730957 440.727600,586.341736 442.091827,585.124329 
	C445.946747,581.684265 451.307068,581.877197 454.596893,585.467590 
	C457.746979,588.905518 457.728210,594.325745 454.554382,597.720642 
	C451.310669,601.190308 445.619843,601.427979 442.101624,597.738525 
	C439.867126,595.395325 437.403931,594.489319 434.516968,595.001831 
	C420.470764,597.495605 409.917572,592.332397 401.352631,581.218506 
	C397.323669,575.990479 391.945251,571.805176 387.202911,567.122559 
	C385.729401,565.667664 384.180176,564.728760 381.944397,564.759094 
	C370.783081,564.910522 359.619781,564.982178 348.457489,564.956421 
	C345.052582,564.948547 342.879700,565.681580 342.216309,569.648743 
	C341.252869,575.410339 337.594757,579.615540 332.498047,582.256958 
	C329.834900,583.637085 329.021667,585.421204 329.100555,588.196411 
	C329.237762,593.024902 329.190826,597.859741 329.158661,602.691528 
	C329.139465,605.574890 329.166473,609.019836 325.248413,608.954468 
	C321.649200,608.894470 321.727875,605.606934 321.718262,602.891663 
	C321.702911,598.559509 321.638580,594.224915 321.754364,589.895691 
	C321.843689,586.556091 321.602417,584.208557 317.077942,584.214539 
	C312.780670,584.220215 312.047424,586.109985 312.183411,589.686646 
	C312.366913,594.512207 312.281128,599.349365 312.253937,604.181152 
	C312.239807,606.690247 311.666748,609.106262 308.583618,609.104248 
	C305.553467,609.102234 304.833740,606.701355 304.790375,604.208740 
	C304.697632,598.878296 304.601074,593.541077 304.773132,588.215210 
	C304.893860,584.478210 302.706787,584.317383 299.939850,584.361877 
	C297.196350,584.405945 295.088013,584.567932 295.221161,588.327209 
	C295.462830,595.150452 295.518250,601.997253 295.229614,608.816406 
	C295.028351,613.571838 296.631348,616.183105 301.414185,617.445740 
	C306.902466,618.894470 309.446381,623.868164 307.802032,628.562195 
	C306.292114,632.872498 301.887268,635.362427 297.466949,634.404480 
	C293.115631,633.461487 290.246460,629.866211 290.713440,625.288391 
	C291.032593,622.159668 291.911102,619.227112 289.082062,616.615723 
	C288.355957,615.945557 288.643219,614.090759 288.605194,612.776123 
	C288.374054,604.786621 288.109833,596.796814 288.016937,588.805298 
	C287.981323,585.743591 287.108887,583.999451 283.670319,584.458008 
	C280.920502,584.824707 278.192169,584.382874 278.229736,588.869751 
	C278.406952,610.029175 278.263824,631.191467 278.190186,652.352539 
	C278.182892,654.453918 278.726013,656.054504 280.231659,657.691162 
	C284.278198,662.089966 284.159973,666.761108 280.284882,670.494324 
	C276.827362,673.825256 271.483795,673.850769 268.112427,670.552429 
	C264.651917,667.166870 264.598846,661.296997 268.527557,657.639160 
	C270.830139,655.495361 271.027710,653.136047 271.028198,650.449585 
	C271.031128,634.464722 271.784882,618.483459 271.133179,602.493286 
	C270.977753,598.679382 271.338043,594.840759 271.530823,591.017029 
	C271.867340,584.342651 271.617035,584.077759 265.124542,584.838013 
	C264.320557,584.932129 263.521759,585.070496 262.788239,585.178406 
	C261.646759,587.409058 262.120728,589.611755 262.113739,591.735962 
	C262.080292,601.899841 261.969116,612.067810 262.218689,622.226074 
	C262.319031,626.308960 261.024261,629.265808 257.781982,631.632263 
	C254.624420,633.936829 252.268005,636.296631 253.155792,641.130554 
	C254.111465,646.334167 250.149033,650.113770 245.014877,650.281189 
	C240.002609,650.444641 235.965836,646.762329 235.730453,641.812012 
	C235.485947,636.670105 238.851669,632.865112 244.006561,632.455688 
	C249.853943,631.991272 254.721069,626.918640 254.741501,621.112671 
	C254.783554,609.162292 254.754150,597.211670 254.754150,585.657837 
	C252.576645,584.211243 250.879272,585.087219 249.271606,584.879333 
	C246.122162,584.472107 245.245392,585.985413 245.298080,588.931030 
	C245.432190,596.426697 245.132523,603.934204 245.417053,611.421387 
	C245.570328,615.454285 244.225067,618.431396 241.419128,621.143127 
	C233.157211,629.127441 225.054504,637.277100 216.761795,645.228821 
	C213.912537,647.960938 212.584824,650.327820 215.093201,654.241211 
	C217.581436,658.123169 215.901413,663.005981 212.025330,665.526794 
	C208.401215,667.883667 203.610657,667.186646 200.712341,663.880493 
	C197.897186,660.669189 197.322128,654.085205 200.792953,652.138672 
	C205.269348,649.628113 207.156647,645.305908 210.452866,642.055237 
	C218.637741,633.983459 226.643524,625.728088 234.914871,617.747131 
	C237.662552,615.095886 238.850494,612.298767 238.716278,608.501831 
	C238.486862,602.011719 238.600952,595.506592 238.690216,589.009399 
	C238.727356,586.305115 238.338989,584.397949 234.901779,584.795898 
	C232.081314,585.122559 229.026215,584.663940 229.163116,589.062256 
	C229.313370,593.889282 229.212692,598.725525 229.160248,603.557007 
	C229.131393,606.215698 228.565704,608.995605 225.345184,608.968689 
	C222.050339,608.941223 221.744568,606.087891 221.735184,603.454651 
	C221.721512,599.622314 221.725769,595.789917 221.723541,591.957581 
	C221.718735,583.683594 221.044189,583.171631 212.287964,585.317505 
	C212.287964,591.151001 212.304230,597.119324 212.280640,603.087524 
	C212.269928,605.799316 212.362488,609.009766 208.663315,609.044556 
	C204.964111,609.079346 204.972061,605.816711 204.917191,603.144287 
	C204.814590,598.147461 204.783264,593.146057 204.877884,588.149536 
	C204.926819,585.565979 204.178024,583.840454 201.712601,582.556091 
	C196.097549,579.631104 192.491348,574.888000 191.144379,568.720032 
	C190.502182,565.779236 188.969193,564.989990 186.273315,565.037048 
	C181.443085,565.121277 176.609375,565.064148 171.777985,565.000427 
	C169.068939,564.964661 166.626968,564.353210 166.734589,560.913574 
	C166.831116,557.828064 169.144440,557.145996 171.617188,557.084167 
	C176.613113,556.959167 181.617111,556.863159 186.610153,557.011658 
	C190.544952,557.128601 190.662109,554.758850 190.793854,551.825745 
	C190.940887,548.552612 189.663834,547.317017 186.452789,547.396729 
	C181.457504,547.520691 176.456360,547.413513 171.457733,547.394226 
	C168.925674,547.384460 166.604446,546.968262 166.774185,543.677673 
	C166.929001,540.676208 169.042877,539.846497 171.630692,539.845825 
	C176.295074,539.844666 180.966827,539.758850 185.621689,539.988342 
	C189.871017,540.197876 191.813019,538.673035 190.189880,534.441589 
	C188.838013,530.917297 190.593109,530.267090 193.435562,530.306702 
	C197.636246,530.365173 200.462067,528.865845 201.019821,524.255188 
	C201.578247,519.639038 206.020554,520.084290 208.789459,519.372681 
	C222.466629,515.857666 236.411560,513.643738 250.471741,512.223206 
	C250.803177,512.189758 251.135284,512.098999 251.464020,512.112061 
	C265.580383,512.672974 279.518372,509.460754 293.625488,510.051208 
	C314.215637,510.913055 334.917328,510.431030 355.225433,514.898865 
	C355.847717,515.035767 356.561401,515.044373 356.782135,516.257874 
	C353.644043,517.693359 350.411987,516.021423 347.260162,516.293762 
	C345.031219,516.486328 342.715424,516.198608 342.640717,519.389404 
	C342.567322,522.524292 344.073059,523.809326 347.268005,523.717773 
	C352.928436,523.555420 358.605530,523.868530 364.259308,523.616272 
	C367.927399,523.452698 370.639771,524.676270 373.033966,527.343079 
	C376.705505,531.432739 380.539795,535.376831 384.319427,539.368958 
	C387.058197,542.261719 389.725464,542.625000 392.923431,539.736145 
	C397.136475,535.930298 402.416992,536.370544 405.677948,540.406067 
	C408.807434,544.278870 408.248810,549.848938 404.426544,552.883362 
	C400.450562,556.039795 395.214142,555.299438 391.634155,551.028931 
	C390.787964,550.019531 390.181458,548.340454 388.746521,548.525269 
	C382.392975,549.343750 379.154968,544.671082 376.397125,540.676025 
	C370.291901,531.831970 362.309082,528.771423 352.038513,530.358948 
	C350.406128,530.611267 348.710236,530.422668 347.048981,530.524536 
	C343.371521,530.750122 342.487671,533.126648 342.406921,536.352722 
	C342.309570,540.241211 344.958038,539.974915 347.494843,540.016541 
	C352.490845,540.098511 357.492065,540.067383 362.480652,540.304138 
	C364.842285,540.416260 367.402161,540.926025 367.198456,544.193115 
	C367.005005,547.295959 364.523285,547.760986 362.125397,547.833679 
	C357.463776,547.975220 352.794983,547.994568 348.131439,547.921021 
	C344.693573,547.866821 342.940308,549.052795 342.918701,552.835449 
	C342.897308,556.582947 344.420868,557.796997 348.009247,557.705627 
	C354.501831,557.540344 361.002411,557.690063 367.999512,557.708008 
M256.722748,540.751465 
	C249.330795,536.246277 250.827362,528.579224 249.988647,521.712585 
	C249.239929,528.945557 246.954361,536.442139 254.680298,541.735474 
	C256.850708,543.222473 258.412903,545.580933 260.543091,547.146423 
	C264.564056,550.101501 265.843323,553.846313 265.580261,558.767151 
	C265.374603,562.614197 264.598206,564.501465 260.231262,564.462341 
	C256.108582,564.425293 254.261612,563.054688 254.814255,558.957703 
	C255.360107,554.911133 253.750290,551.888672 250.722916,549.372559 
	C249.447617,548.312683 248.503967,546.817688 247.156540,545.886658 
	C240.564056,541.331421 238.814453,535.148499 240.405716,527.554382 
	C240.763138,525.848572 241.419556,523.674622 238.681900,521.490417 
	C237.785400,527.910339 238.212448,533.648376 238.441483,539.334412 
	C238.573486,542.611511 242.008789,543.465454 243.971725,545.385376 
	C246.350754,547.712280 248.852066,549.913940 251.292557,552.178284 
	C254.530518,555.182495 253.640289,559.055664 252.825485,562.471741 
	C252.112396,565.461426 248.915375,564.302002 246.763474,564.327881 
	C237.602844,564.437805 228.439774,564.400696 219.278030,564.345337 
	C212.617462,564.305115 210.775101,562.428772 210.731903,555.631775 
	C210.681091,547.636169 210.731613,539.639954 210.736008,531.643982 
	C210.737411,529.101440 210.555283,526.662415 207.305389,525.706970 
	C205.397903,527.815918 205.208801,530.250000 205.212082,532.761169 
	C205.222046,540.423889 205.176239,548.086853 205.221924,555.749268 
	C205.287888,566.812805 209.139114,570.635986 220.303192,570.636536 
	C245.277435,570.637817 270.252319,570.676819 295.225525,570.502075 
	C302.542908,570.450867 309.879639,571.200256 317.182739,570.236938 
	C325.239075,569.174255 328.585968,565.472778 328.636627,557.333496 
	C328.713379,545.006836 328.700165,532.679199 328.630432,520.352478 
	C328.619385,518.394531 329.545929,515.560364 326.115448,515.401245 
	C322.430084,515.230286 322.972321,518.213867 322.961456,520.394287 
	C322.907562,531.213928 323.065155,542.034790 322.988922,552.854065 
	C322.915741,563.243103 321.713379,564.363342 311.547180,564.358643 
	C309.881348,564.357849 308.204041,564.223389 306.552063,564.372620 
	C302.916779,564.700989 301.470612,563.229797 301.576782,559.511963 
	C301.781158,552.354492 301.644623,545.187683 301.680908,538.024902 
	C301.691223,535.989319 301.554382,534.118958 299.932190,532.530457 
	C294.934662,527.636597 290.056335,522.621216 285.073669,517.711975 
	C284.392029,517.040405 283.621918,515.721436 281.982086,517.223206 
	C286.622284,521.844116 291.224976,526.383850 295.770935,530.979675 
	C297.276489,532.501709 299.147278,533.931580 299.205353,536.305176 
	C299.396484,544.123718 299.457489,551.945374 299.591003,559.765442 
	C299.647949,563.101257 298.183472,564.460571 294.733002,564.365845 
	C291.114655,564.266479 290.758026,562.140015 290.767487,559.401917 
	C290.789398,553.071899 290.729675,546.741150 290.804443,540.411926 
	C290.831390,538.129822 290.322571,536.274536 288.600433,534.594849 
	C283.712830,529.827637 279.013947,524.867371 274.148743,520.076477 
	C273.043457,518.988037 272.060333,517.165466 269.780853,517.825134 
	C275.313385,523.531250 280.606140,529.010681 285.925201,534.464478 
	C287.695953,536.280090 289.265381,538.083069 289.214478,540.905396 
	C289.103363,547.067017 289.061890,553.234192 289.199707,559.394470 
	C289.299744,563.863647 286.882080,564.734070 283.127930,564.294189 
	C279.356415,563.852356 279.690033,560.849304 280.003479,558.598938 
	C281.344452,548.971619 278.394958,541.363159 270.294678,535.825928 
	C268.369873,534.510132 267.603943,532.604614 267.716064,530.215454 
	C267.866028,527.020081 266.316101,525.148010 262.981171,525.132568 
	C260.038696,525.118896 257.965912,526.795776 257.777924,529.512207 
	C257.538177,532.976440 260.114166,534.389160 263.286194,534.607910 
	C264.764374,534.709839 266.237244,534.414551 267.479126,535.659607 
	C273.664978,541.861450 281.005707,547.473694 278.292542,557.991516 
	C278.131378,558.616272 278.219025,559.323608 278.279877,559.984314 
	C278.713989,564.697388 275.466217,564.217041 272.386353,564.398376 
	C268.778290,564.610840 266.606628,563.184692 267.392303,559.601318 
	C268.819855,553.090088 265.961060,548.790588 261.156921,545.092529 
	C259.716400,543.983704 258.534515,542.538940 256.722748,540.751465 
M312.571625,539.759033 
	C314.994995,526.789551 303.849701,522.854492 297.050598,516.053711 
	C299.152740,520.426880 302.839569,523.539307 306.321899,526.674194 
	C309.998840,529.984375 310.675751,533.786743 310.417603,538.316711 
	C310.277130,540.781372 308.259369,542.001160 307.542847,543.979492 
	C306.709564,546.280273 306.483643,548.772949 308.872223,550.245605 
	C311.050385,551.588440 313.456024,551.213135 315.281097,549.342834 
	C317.272797,547.301758 316.832733,545.132629 315.095490,543.102356 
	C314.340698,542.220215 313.574554,541.347778 312.571625,539.759033 
M227.050415,527.777344 
	C224.497925,530.889221 223.754593,534.440918 224.167786,538.405762 
	C224.566925,542.235535 224.263412,545.752808 221.163162,548.876892 
	C219.215378,550.839661 220.142654,553.528015 222.415024,555.363098 
	C224.467270,557.020386 226.453079,556.694763 228.203506,555.004028 
	C230.132126,553.141113 230.361526,550.906982 228.724762,548.750671 
	C223.928314,542.431946 224.516281,536.088074 228.458359,529.676575 
	C229.382248,528.174072 230.218536,526.684753 228.634216,524.518616 
	C228.003571,525.715271 227.631500,526.421265 227.050415,527.777344 
M246.361877,643.575745 
	C247.955673,642.191895 247.957230,640.744019 246.437653,639.340149 
	C245.511581,638.484558 244.415894,638.164429 243.263519,638.955872 
	C242.221268,639.671814 241.589188,640.691772 241.950851,641.941833 
	C242.512741,643.884094 243.865921,644.542419 246.361877,643.575745 
M397.960632,543.531555 
	C395.850952,545.026550 395.598602,546.746216 397.766724,548.258179 
	C398.934998,549.072815 400.555267,548.811096 401.172607,547.395142 
	C402.189301,545.063110 401.319183,543.564758 397.960632,543.531555 
M446.103729,593.331238 
	C448.072388,595.030701 449.767792,594.792175 450.616791,592.310486 
	C451.235046,590.503479 450.332550,588.777588 448.392670,588.767761 
	C445.987396,588.755615 444.985626,590.363586 446.103729,593.331238 
M276.716278,663.718994 
	C275.887543,661.118774 274.350159,660.798645 272.399139,662.521790 
	C271.296173,663.495972 270.973145,664.900024 272.267822,665.874084 
	C274.271881,667.381836 275.872650,666.849609 276.716278,663.718994 
M208.637222,660.215149 
	C210.564499,658.589355 210.814880,656.882263 208.451828,655.588989 
	C207.004089,654.796753 205.341492,655.262024 204.873505,656.968262 
	C204.178116,659.503479 205.604233,660.560669 208.637222,660.215149 
M301.550323,624.885986 
	C300.083832,622.684082 298.307465,622.633972 296.846924,624.655640 
	C295.769409,626.147156 296.728363,627.634399 298.245026,628.203979 
	C300.532013,629.062866 301.606812,627.836365 301.550323,624.885986 
z"/>
<path fill="#000000" opacity="1.000000" stroke="none" 
	d="
M430.481689,519.320496 
	C423.141510,503.476807 426.305023,485.451202 437.854614,475.983734 
	C450.608643,465.528931 470.886169,464.697540 484.017365,474.177063 
	C485.971436,475.587738 489.316711,477.144379 488.367371,479.616699 
	C487.032928,483.091675 483.864197,485.783264 480.477783,487.616058 
	C478.996796,488.417542 477.900574,486.482056 476.735504,485.636780 
	C468.674194,479.788116 457.598816,479.549042 450.083588,485.099396 
	C443.132294,490.233307 440.296478,500.782898 443.388275,510.007385 
	C447.829315,523.257568 464.132263,527.909424 475.918274,519.337524 
	C477.427063,518.240173 478.722351,515.633545 480.930023,517.024780 
	C484.004395,518.962219 486.949738,521.389404 488.611237,524.693787 
	C489.485931,526.433350 487.313965,527.555420 486.180756,528.650452 
	C476.825989,537.690308 459.034912,539.844299 445.832428,533.608704 
	C439.322021,530.533875 434.074524,526.089661 430.481689,519.320496 
z"/>
<path fill="#000000" opacity="1.000000" stroke="none" 
	d="
M642.941650,494.230347 
	C646.087341,499.338898 647.449890,504.502747 647.476746,510.177979 
	C647.494812,513.989990 646.370239,515.530273 642.346436,515.423523 
	C633.361511,515.184875 624.365601,515.320557 615.374634,515.379944 
	C613.616089,515.391602 611.725342,514.850037 610.111328,516.067017 
	C611.802063,522.071350 617.894226,525.578918 624.980774,524.495789 
	C627.764954,524.070251 630.563843,523.444397 632.938965,521.746094 
	C638.568176,517.721130 639.533997,523.819946 641.963684,526.134705 
	C644.990845,529.018555 641.670227,530.495544 639.857605,531.847412 
	C624.747314,543.116516 599.687500,535.757080 594.594788,518.619568 
	C590.786438,505.803802 595.857239,492.490356 606.741333,486.728149 
	C619.285034,480.087402 634.221619,483.073669 642.941650,494.230347 
M620.494568,505.672882 
	C624.332520,505.327332 628.318909,506.477234 632.057251,504.811005 
	C630.801331,498.877899 626.057068,495.193756 620.327820,495.468842 
	C614.406616,495.753113 610.170227,499.555389 609.822571,505.098206 
	C612.978638,506.226929 616.294739,505.435303 620.494568,505.672882 
z"/>
<path fill="#000000" opacity="1.000000" stroke="none" 
	d="
M494.885498,499.255249 
	C501.521881,486.110382 514.725220,480.356659 529.059875,484.053284 
	C542.274536,487.461090 549.880676,497.873413 549.301086,511.762054 
	C548.466431,531.763672 524.811401,543.568298 506.212952,533.264404 
	C494.435944,526.739807 490.146454,514.153442 494.885498,499.255249 
M530.494934,500.050934 
	C525.341187,495.552551 518.829895,494.673645 514.124207,497.841125 
	C508.774017,501.442474 506.778351,508.641571 509.185242,515.658264 
	C511.281555,521.769653 515.948364,524.621094 522.743347,523.942383 
	C528.480835,523.369324 532.845459,519.252014 533.631714,513.427795 
	C534.244690,508.887634 533.888916,504.473267 530.494934,500.050934 
z"/>
<path fill="#000000" opacity="1.000000" stroke="none" 
	d="
M565.015259,536.148682 
	C559.989502,536.783264 558.489929,534.859680 558.590393,530.260925 
	C558.863098,517.788574 558.671631,505.306396 558.692017,492.828156 
	C558.707153,483.592590 558.725586,483.657898 568.111206,483.807587 
	C571.013367,483.853882 573.479126,484.141632 573.676819,487.922058 
	C577.458984,486.377197 580.364197,484.090485 584.105652,483.515930 
	C587.701965,482.963654 589.628235,483.690521 589.292358,487.710358 
	C589.168030,489.197876 589.151550,490.712524 589.275513,492.198975 
	C589.547791,495.466278 588.331055,496.939636 584.859131,497.280701 
	C577.018982,498.050903 573.649231,501.762878 573.407532,509.624451 
	C573.218445,515.774536 573.326599,521.935364 573.376343,528.090881 
	C573.441711,536.171265 573.472900,536.171021 565.015259,536.148682 
z"/>
<path fill="#000000" opacity="1.000000" stroke="none" 
	d="
M675.622070,498.395630 
	C681.560608,500.214783 687.327576,501.279449 692.660706,503.709839 
	C699.674805,506.906250 703.619751,512.725952 703.227783,519.179932 
	C702.811096,526.042725 698.201721,531.775024 691.042542,534.108826 
	C679.689575,537.809875 669.029663,535.753418 658.905334,529.947021 
	C655.962708,528.259399 654.714355,526.107971 658.332764,522.890747 
	C663.576721,526.370850 669.210510,529.431458 675.755737,530.346558 
	C680.688293,531.036133 685.386536,530.491028 689.950134,528.647339 
	C694.168823,526.942993 696.677979,523.997070 696.856873,519.206360 
	C697.035706,514.419861 694.738403,511.294708 690.697083,509.243103 
	C685.904724,506.810150 680.575256,505.971069 675.530945,504.282349 
	C672.535950,503.279694 669.468140,502.380798 666.643433,501.003632 
	C655.365662,495.505157 654.372925,480.668121 664.723328,473.632904 
	C672.809875,468.136383 690.766174,468.402435 698.714661,474.045624 
	C700.384094,475.230865 700.799316,476.531982 699.937866,478.296204 
	C698.951721,480.315704 697.597168,480.165436 695.857971,479.133392 
	C688.921387,475.016998 681.383484,474.215271 673.669556,475.923340 
	C667.086304,477.381012 663.609314,481.312103 663.395813,486.573456 
	C663.211792,491.106323 666.439026,494.927094 672.432312,497.252625 
	C673.363098,497.613739 674.312683,497.926147 675.622070,498.395630 
z"/>
<path fill="#000000" opacity="1.000000" stroke="none" 
	d="
M889.062500,504.347351 
	C890.384583,513.655640 891.482117,513.364258 881.540955,513.322571 
	C872.548462,513.284851 863.555603,513.274902 854.563171,513.305176 
	C848.924133,513.324097 848.439087,514.135437 850.692200,519.422302 
	C855.311951,530.262512 869.522461,533.863464 879.939392,526.883545 
	C881.656677,525.732910 883.510315,522.786255 885.563416,526.293213 
	C887.321533,529.296082 884.448303,530.467285 882.661072,531.656311 
	C873.452637,537.782288 858.268616,536.577393 850.490234,529.239319 
	C842.643799,521.837158 840.814575,507.043213 846.766296,497.325073 
	C852.179382,488.486328 860.570129,485.557953 870.388489,486.809082 
	C880.433167,488.088989 886.320374,494.385986 889.062500,504.347351 
M849.693359,504.271576 
	C848.533997,507.703278 850.083496,508.716400 853.333374,508.682587 
	C861.950195,508.592804 870.570984,508.545593 879.185486,508.715820 
	C883.154724,508.794250 884.181091,507.498230 882.929138,503.684509 
	C880.731873,496.990814 874.642883,491.989441 867.507507,491.466888 
	C859.961914,490.914307 853.775146,495.185425 849.693359,504.271576 
z"/>
<path fill="#000000" opacity="1.000000" stroke="none" 
	d="
M752.959473,523.760559 
	C750.174683,518.052551 748.964661,512.400696 750.019409,506.480652 
	C752.261047,493.899139 761.076843,486.430969 773.559875,486.332855 
	C786.001282,486.235077 794.924988,493.524017 797.593445,505.963531 
	C800.057495,517.450562 794.521729,528.783508 784.265869,533.248169 
	C772.720154,538.274414 760.433655,534.658203 752.959473,523.760559 
M785.001099,526.578491 
	C792.158813,520.062866 794.100525,509.655365 789.748596,501.131866 
	C786.443970,494.659760 778.207275,490.413849 771.416931,491.670227 
	C763.218933,493.187042 757.967712,497.824158 756.158630,506.088501 
	C754.365356,514.280273 756.342407,521.507996 762.980103,526.619873 
	C769.748413,531.832458 777.169067,531.570679 785.001099,526.578491 
z"/>
<path fill="#000000" opacity="1.000000" stroke="none" 
	d="
M180.878647,535.467773 
	C177.090744,539.032288 173.453674,539.676941 169.067627,536.736328 
	C164.916977,533.953552 160.834930,534.085571 157.182678,538.337585 
	C153.833130,542.237183 149.803726,545.549683 146.413635,549.418579 
	C143.748459,552.460266 140.745087,553.697021 136.779160,553.327820 
	C133.641251,553.035706 130.822739,553.193420 128.353546,556.180359 
	C125.068115,560.154724 119.511330,559.989380 115.923203,556.587097 
	C112.438301,553.282654 112.215256,547.533081 115.434204,543.979675 
	C118.616417,540.466797 124.177666,540.202454 128.053528,543.379944 
	C134.142914,548.372192 138.827240,548.607178 143.559311,542.391724 
	C149.903717,534.058411 158.400696,531.581787 167.999695,530.883057 
	C169.698318,530.759399 171.217697,530.344299 172.764603,529.652039 
	C176.040649,528.186096 176.364792,530.040710 175.729080,532.519897 
	C177.431534,533.810974 180.517029,531.912659 180.878647,535.467773 
M122.373543,552.667175 
	C124.901558,551.911438 125.456444,550.248840 123.968559,548.246277 
	C122.945686,546.869568 121.199478,546.902222 120.155434,548.255493 
	C118.615501,550.251587 119.130669,551.896484 122.373543,552.667175 
z"/>
<path fill="#000000" opacity="1.000000" stroke="none" 
	d="
M717.147034,486.536163 
	C720.941528,485.061279 718.568848,482.074249 719.274658,479.904755 
	C719.890381,478.011963 719.052368,475.066437 722.400574,475.277527 
	C725.501526,475.472992 725.474243,478.161346 725.153320,480.197174 
	C724.260193,485.862549 727.147827,486.827698 731.924377,486.726959 
	C734.135010,486.680328 738.342896,484.931519 738.284241,488.996582 
	C738.227844,492.910828 734.124207,491.127289 731.821655,491.227020 
	C725.218201,491.513000 725.206482,491.356689 725.211670,497.876160 
	C725.217896,505.688446 725.154724,513.501892 725.267090,521.312683 
	C725.379639,529.140564 729.700928,532.117859 737.001831,529.471558 
	C738.653076,528.873047 740.222412,528.024231 741.094604,530.341431 
	C741.929749,532.560181 740.814209,533.735474 738.745361,534.417725 
	C730.220581,537.228943 719.631958,534.896179 719.658875,522.155151 
	C719.677490,513.345581 719.633118,504.535797 719.656189,495.726227 
	C719.662415,493.349060 719.346863,491.474640 716.300659,491.287506 
	C714.381592,491.169617 711.166016,492.239838 711.258667,488.958466 
	C711.359314,485.396729 714.783386,487.140259 717.147034,486.536163 
z"/>
<path fill="#000000" opacity="1.000000" stroke="none" 
	d="
M835.286621,486.859680 
	C836.617859,489.970917 835.672485,491.814819 832.669434,492.093353 
	C822.734985,493.014679 818.187012,502.369385 818.346375,510.148956 
	C818.485962,516.965271 818.394409,523.786987 818.343506,530.605957 
	C818.327698,532.731262 818.635132,535.304138 815.280396,535.111572 
	C812.274292,534.938965 812.741943,532.496582 812.734009,530.601257 
	C812.679932,517.628235 812.660034,504.654785 812.718567,491.681854 
	C812.728149,489.549286 811.843933,486.479828 815.563904,486.524902 
	C819.320618,486.570343 817.993774,489.703247 818.320374,491.780914 
	C818.394165,492.250305 818.465393,492.720123 818.589783,493.526703 
	C823.454834,489.405823 828.341431,485.771423 835.286621,486.859680 
z"/>
<path fill="#000000" opacity="1.000000" stroke="none" 
	d="
M153.294022,530.048706 
	C147.270660,529.228699 141.874756,527.409912 136.833374,524.861389 
	C136.944839,522.495483 138.595993,522.127563 139.905289,521.631042 
	C145.661835,519.448120 151.422424,517.261841 157.260651,515.313904 
	C160.238541,514.320312 163.296143,513.936829 164.242126,518.272095 
	C164.759583,520.643494 167.753632,520.647400 168.807327,522.763123 
	C164.451706,526.729004 158.473312,527.142700 153.294022,530.048706 
z"/>
<path fill="#000000" opacity="1.000000" stroke="none" 
	d="
M802.911377,551.695923 
	C810.431824,550.784424 815.840820,553.169800 818.652222,558.393616 
	C821.254089,563.228271 820.768250,569.435913 817.475952,573.422302 
	C813.521240,578.210754 807.697510,579.965271 801.771362,578.153564 
	C796.447388,576.525940 792.457581,571.194092 792.205933,565.371033 
	C791.936462,559.135010 795.570801,554.345398 802.911377,551.695923 
M799.110962,572.351929 
	C802.964050,575.812073 807.184387,576.906494 811.756897,573.916443 
	C815.369019,571.554504 817.186584,568.091248 816.463806,563.741028 
	C815.764587,559.532593 813.567200,556.303833 809.136475,555.318298 
	C804.572998,554.303101 800.407532,555.205139 797.782471,559.353699 
	C795.127014,563.550293 795.535461,567.835327 799.110962,572.351929 
z"/>
<path fill="#000000" opacity="1.000000" stroke="none" 
	d="
M831.580444,556.539124 
	C831.089417,552.590210 832.638245,551.299255 836.096069,551.615662 
	C838.905884,551.872864 841.780640,551.515930 844.571289,551.868713 
	C851.361877,552.726929 855.476074,560.398682 851.363831,565.679260 
	C848.295044,569.619873 848.616150,572.187500 851.505737,575.432678 
	C852.157104,576.164246 852.642822,577.095825 852.068970,578.583557 
	C848.953979,579.223572 848.227356,576.330078 846.920166,574.587708 
	C845.320801,572.455872 844.181580,570.180237 840.859924,570.149231 
	C837.208374,570.115234 834.559448,570.569275 834.880920,575.142029 
	C834.967407,576.372314 834.869324,577.882446 832.114319,578.687073 
	C830.141907,571.418579 832.400635,564.084351 831.580444,556.539124 
M835.074341,562.336975 
	C835.740356,566.780090 838.899536,568.166870 844.741516,566.581482 
	C846.823120,566.016541 848.300232,564.828430 848.719543,562.615723 
	C849.143494,560.378723 848.935852,558.215027 847.057251,556.703796 
	C844.039062,554.276001 840.377014,554.567383 837.063354,555.416931 
	C834.083435,556.180847 835.420044,559.295044 835.074341,562.336975 
z"/>
<path fill="#000000" opacity="1.000000" stroke="none" 
	d="
M872.243530,555.016724 
	C868.686096,554.786011 867.285828,556.040955 867.322754,559.341675 
	C867.362244,562.866760 869.568176,562.666016 871.993042,562.903381 
	C874.993347,563.197144 878.495544,561.541138 881.288269,564.968323 
	C878.384827,567.209778 875.322876,566.281799 872.529053,566.270874 
	C869.436157,566.258850 867.927124,567.175903 867.976685,570.524902 
	C868.023315,573.672180 869.224915,574.881592 872.409607,575.054138 
	C876.107483,575.254395 880.200134,573.721313 883.947754,576.787170 
	C881.118347,580.034302 877.774231,578.830872 874.883240,578.847290 
	C862.288940,578.918396 864.039062,579.541382 863.934143,567.891296 
	C863.896790,563.740784 863.965332,559.589233 863.995789,555.438293 
	C864.015137,552.793823 865.275574,551.717834 867.999023,551.569763 
	C875.197876,551.178406 880.279968,551.543945 882.998840,553.172241 
	C879.892700,556.222046 876.081482,554.562134 872.243530,555.016724 
z"/>
<path fill="#000000" opacity="1.000000" stroke="none" 
	d="
M745.872070,566.315308 
	C741.913635,564.989075 738.542969,563.608765 738.648560,558.874878 
	C738.723877,555.498535 740.140808,552.991211 743.336243,551.944519 
	C747.806030,550.480530 752.188416,550.766235 756.054871,553.778076 
	C756.399048,554.046204 756.255615,554.940186 756.364990,555.735046 
	C753.662109,556.543274 751.700684,554.706421 749.479187,554.530457 
	C746.537720,554.297424 743.430359,554.389343 742.501587,557.799194 
	C741.536499,561.341919 744.464722,562.217346 747.093079,563.072876 
	C749.615662,563.893860 752.288757,564.489014 754.568604,565.766968 
	C758.627441,568.042175 759.118652,572.602234 755.996216,575.908081 
	C752.018494,580.119507 742.364746,580.139832 738.585876,575.914368 
	C738.007324,575.267395 737.784485,574.462158 738.570496,573.575439 
	C740.137878,572.572449 741.252808,574.105530 742.533325,574.603271 
	C744.925537,575.533203 747.361206,576.029053 749.866943,575.513123 
	C751.870789,575.100586 753.869141,574.258972 754.106934,571.886292 
	C754.349304,569.468384 752.498474,568.375732 750.573486,567.629639 
	C749.183167,567.090881 747.697632,566.797729 745.872070,566.315308 
z"/>
<path fill="#000000" opacity="1.000000" stroke="none" 
	d="
M773.668762,573.651306 
	C773.658875,568.528564 773.571106,563.862610 773.669373,559.200500 
	C773.737061,555.986938 773.057983,553.931519 769.140991,554.775574 
	C767.397156,555.151367 765.404724,555.340942 764.469482,551.920044 
	C771.828491,551.443481 778.858826,551.227478 786.032959,552.179810 
	C785.593628,554.719360 784.068604,554.964172 782.851624,554.847961 
	C777.499023,554.336914 776.909119,557.416748 777.147156,561.654663 
	C777.380310,565.805420 777.232300,569.981995 777.136719,574.144531 
	C777.100952,575.702454 777.531738,577.610291 775.278748,578.288818 
	C772.990540,577.572510 773.947083,575.597534 773.668762,573.651306 
z"/>
<path fill="#000000" opacity="1.000000" stroke="none" 
	d="
M310.996765,464.023071 
	C313.136353,464.255249 314.628662,464.924286 314.078278,467.095093 
	C313.747772,468.398804 312.725830,469.381104 311.319855,469.578156 
	C310.058533,469.754944 309.067413,469.105194 308.672150,467.889313 
	C308.061401,466.010620 308.832489,464.743073 310.996765,464.023071 
z"/>
<path fill="#000000" opacity="1.000000" stroke="none" 
	d="
M283.400635,464.646332 
	C283.679657,461.528961 285.303375,460.520660 287.808289,461.597351 
	C289.162415,462.179352 289.565430,463.801086 288.684937,464.993652 
	C287.104584,467.133972 285.233063,467.391632 283.400635,464.646332 
z"/>
<path fill="#000000" opacity="1.000000" stroke="none" 
	d="
M264.028503,472.198395 
	C266.124359,471.379608 266.790039,472.404297 266.731323,473.977844 
	C266.684387,475.235748 265.799744,476.109467 264.603241,476.475159 
	C263.556854,476.794922 262.557434,476.495483 262.069763,475.471405 
	C261.241333,473.731567 262.832611,473.200958 264.028503,472.198395 
z"/>
<path fill="#000000" opacity="1.000000" stroke="none" 
	d="
M258.229126,459.761475 
	C259.132904,462.450470 258.118195,463.929382 255.890442,464.595642 
	C254.674805,464.959229 253.603775,464.390411 252.888550,463.364594 
	C252.051224,462.163544 251.958572,460.787720 252.880630,459.673553 
	C254.442276,457.786438 256.259949,457.950562 258.229126,459.761475 
z"/>
<path fill="#000000" opacity="1.000000" stroke="none" 
	d="
M229.796249,461.045593 
	C232.004425,462.249176 232.789215,463.703644 231.571884,465.683075 
	C230.902145,466.772095 229.788376,467.152832 228.554062,466.894867 
	C227.135132,466.598267 226.049759,465.721863 226.018463,464.241028 
	C225.972839,462.080505 227.127670,460.865204 229.796249,461.045593 
z"/>
<path fill="#000000" opacity="1.000000" stroke="none" 
	d="
M215.236084,484.290955 
	C214.433563,481.458466 215.053574,479.657990 217.996460,479.834473 
	C219.471436,479.922943 220.339828,481.218628 219.972275,482.651855 
	C219.351807,485.071289 218.037521,486.503510 215.236084,484.290955 
z"/>
<path fill="#000000" opacity="1.000000" stroke="none" 
	d="
M310.813171,491.294464 
	C312.870575,492.015076 313.494080,493.170319 312.417816,494.755707 
	C311.551239,496.032196 310.223175,496.735168 308.637817,496.491943 
	C307.581116,496.329834 306.889771,495.554871 306.887115,494.461517 
	C306.881439,492.128326 308.566895,491.563782 310.813171,491.294464 
z"/>
<path fill="#000000" opacity="1.000000" stroke="none" 
	d="
M265.122040,527.774536 
	C266.778351,530.747864 265.235535,531.850098 262.930634,532.060669 
	C261.192596,532.219482 259.937317,530.926270 260.279877,529.230164 
	C260.808624,526.612366 262.665649,526.351074 265.122040,527.774536 
z"/>
<path fill="#000000" opacity="1.000000" stroke="none" 
	d="
M309.845642,545.684448 
	C311.573730,544.258240 313.213715,543.211121 314.423340,545.625671 
	C315.234344,547.244568 314.415619,548.623291 312.728394,548.938660 
	C310.587433,549.338745 309.241211,548.449524 309.845642,545.684448 
z"/>
</svg>